<?xml version="1.0" encoding="us-ascii" standalone="no"?><svg xmlns="http://www.w3.org/2000/svg" xmlns:xlink="http://www.w3.org/1999/xlink" contentStyleType="text/css" height="900px" preserveAspectRatio="none" style="width:3738px;height:900px;background:#FFFFFF;" version="1.1" viewBox="0 0 3738 900" width="3738px" zoomAndPan="magnify"><defs/><g><!--cluster src_b874d07--><g id="cluster_src_b874d07"><path d="M8.5,126 L32.5,126 A3.75,3.75 0 0 1 35,128.5 L42,148.2969 L3728.5,148.2969 A2.5,2.5 0 0 1 3731,150.7969 L3731,890.5 A2.5,2.5 0 0 1 3728.5,893 L8.5,893 A2.5,2.5 0 0 1 6,890.5 L6,128.5 A2.5,2.5 0 0 1 8.5,126 " fill="none" style="stroke:#000000;stroke-width:1.5;"/><line style="stroke:#000000;stroke-width:1.5;" x1="6" x2="42" y1="148.2969" y2="148.2969"/><text fill="#000000" font-family="sans-serif" font-size="14" font-weight="bold" lengthAdjust="spacing" textLength="23" x="10" y="140.9951">src</text></g><!--cluster express_4db1312--><g id="cluster_express_4db1312"><path d="M3515.5,254 L3578.5,254 A3.75,3.75 0 0 1 3581,256.5 L3588,276.2969 L3704.5,276.2969 A2.5,2.5 0 0 1 3707,278.7969 L3707,338.5 A2.5,2.5 0 0 1 3704.5,341 L3515.5,341 A2.5,2.5 0 0 1 3513,338.5 L3513,256.5 A2.5,2.5 0 0 1 3515.5,254 " fill="none" style="stroke:#000000;stroke-width:1.5;"/><line style="stroke:#000000;stroke-width:1.5;" x1="3513" x2="3588" y1="276.2969" y2="276.2969"/><text fill="#000000" font-family="sans-serif" font-size="14" font-weight="bold" lengthAdjust="spacing" textLength="62" x="3517" y="268.9951">express</text></g><!--cluster singleton_4e675d67--><g id="cluster_singleton_4e675d67"><path d="M2780.5,478 L2856.5,478 A3.75,3.75 0 0 1 2859,480.5 L2866,500.2969 L3674.5,500.2969 A2.5,2.5 0 0 1 3677,502.7969 L3677,737.5 A2.5,2.5 0 0 1 3674.5,740 L2780.5,740 A2.5,2.5 0 0 1 2778,737.5 L2778,480.5 A2.5,2.5 0 0 1 2780.5,478 " fill="none" style="stroke:#000000;stroke-width:1.5;"/><line style="stroke:#000000;stroke-width:1.5;" x1="2778" x2="2866" y1="500.2969" y2="500.2969"/><text fill="#000000" font-family="sans-serif" font-size="14" font-weight="bold" lengthAdjust="spacing" textLength="75" x="2782" y="492.9951">singleton</text></g><!--cluster types_b9f6c763--><g id="cluster_types_b9f6c763"><path d="M2381.5,205.5 L2426.5,205.5 A3.75,3.75 0 0 1 2429,208 L2436,227.7969 L3486.5,227.7969 A2.5,2.5 0 0 1 3489,230.2969 L3489,368 A2.5,2.5 0 0 1 3486.5,370.5 L2381.5,370.5 A2.5,2.5 0 0 1 2379,368 L2379,208 A2.5,2.5 0 0 1 2381.5,205.5 " fill="none" style="stroke:#000000;stroke-width:1.5;"/><line style="stroke:#000000;stroke-width:1.5;" x1="2379" x2="2436" y1="227.7969" y2="227.7969"/><text fill="#000000" font-family="sans-serif" font-size="14" font-weight="bold" lengthAdjust="spacing" textLength="44" x="2383" y="220.4951">types</text></g><!--cluster any_function_b59e1615--><g id="cluster_any_function_b59e1615"><path d="M2513.5,248.5 L2614.5,248.5 A3.75,3.75 0 0 1 2617,251 L2624,270.7969 L3462.5,270.7969 A2.5,2.5 0 0 1 3465,273.2969 L3465,344 A2.5,2.5 0 0 1 3462.5,346.5 L2513.5,346.5 A2.5,2.5 0 0 1 2511,344 L2511,251 A2.5,2.5 0 0 1 2513.5,248.5 " fill="none" style="stroke:#000000;stroke-width:1.5;"/><line style="stroke:#000000;stroke-width:1.5;" x1="2511" x2="2624" y1="270.7969" y2="270.7969"/><text fill="#000000" font-family="sans-serif" font-size="14" font-weight="bold" lengthAdjust="spacing" textLength="100" x="2515" y="263.4951">any-function</text></g><!--cluster date_fns_5b922ce7--><g id="cluster_date_fns_5b922ce7"><path d="M334.5,6 L401.5,6 A3.75,3.75 0 0 1 404,8.5 L411,28.2969 L885.5,28.2969 A2.5,2.5 0 0 1 888,30.7969 L888,99.5 A2.5,2.5 0 0 1 885.5,102 L334.5,102 A2.5,2.5 0 0 1 332,99.5 L332,8.5 A2.5,2.5 0 0 1 334.5,6 " fill="none" style="stroke:#000000;stroke-width:1.5;"/><line style="stroke:#000000;stroke-width:1.5;" x1="332" x2="411" y1="28.2969" y2="28.2969"/><text fill="#000000" font-family="sans-serif" font-size="14" font-weight="bold" lengthAdjust="spacing" textLength="66" x="336" y="20.9951">date-fns</text></g><!--entity class_type_e4ba24f3--><g id="elem_class_type_e4ba24f3"><rect fill="#F1F1F1" height="46.5938" rx="2.5" ry="2.5" style="stroke:#181818;stroke-width:0.5;" width="517" x="1248.5" y="283.5"/><text fill="#000000" font-family="sans-serif" font-size="14" lengthAdjust="spacing" textLength="72" x="1258.5" y="299.4951">ClassType</text><line style="stroke:#181818;stroke-width:1.0;" x1="1249.5" x2="1764.5" y1="302.7969" y2="302.7969"/><text fill="#000000" font-family="sans-serif" font-size="14" lengthAdjust="spacing" textLength="497" x="1258.5" y="319.792">new (...args: T extends { new (...args: infer P): any } ? P : never[]) =&gt; T</text></g><g id="elem_class_factory_pattern_e4ba24f3"><rect fill="#F1F1F1" height="36.2969" style="stroke:#181818;stroke-width:0.5;" width="153" x="1800.5" y="289"/><text fill="#000000" font-family="sans-serif" font-size="14" lengthAdjust="spacing" textLength="139" x="1807.5" y="303.9951">classFactoryPattern</text><line style="stroke:#181818;stroke-width:0.5;" x1="1801.5" x2="1952.5" y1="309.2969" y2="309.2969"/></g><!--class joi_logger_68a048a4--><g id="elem_joi_logger_68a048a4"><rect codeLine="15" fill="#F1F1F1" height="80.5938" id="joi_logger_68a048a4" rx="2.5" ry="2.5" style="stroke:#181818;stroke-width:0.5;" width="202" x="1989" y="266.5"/><ellipse cx="2052.25" cy="282.5" fill="#B4A7E5" rx="11" ry="11" style="stroke:#181818;stroke-width:1.0;"/><path d="M2048.1719,278.2656 L2048.1719,276.1094 L2055.5625,276.1094 L2055.5625,278.2656 L2053.0938,278.2656 L2053.0938,286.3438 L2055.5625,286.3438 L2055.5625,288.5 L2048.1719,288.5 L2048.1719,286.3438 L2050.6406,286.3438 L2050.6406,278.2656 L2048.1719,278.2656 Z " fill="#000000"/><text fill="#000000" font-family="sans-serif" font-size="14" font-style="italic" lengthAdjust="spacing" textLength="67" x="2072.75" y="287.3467">JoiLogger</text><line style="stroke:#181818;stroke-width:0.5;" x1="1990" x2="2190" y1="298.5" y2="298.5"/><line style="stroke:#181818;stroke-width:0.5;" x1="1990" x2="2190" y1="306.5" y2="306.5"/><ellipse cx="2000" cy="328.2969" fill="#84BE84" rx="3" ry="3" style="stroke:#038048;stroke-width:1.0;"/><text fill="#000000" font-family="sans-serif" font-size="14" lengthAdjust="spacing" textLength="123" x="2009" y="323.4951">warn(msg: string,</text><text fill="#000000" font-family="sans-serif" font-size="14" lengthAdjust="spacing" textLength="156" x="2029" y="339.792">obj: ObjectType): void</text></g><!--entity joi_util_options_68a048a4--><g id="elem_joi_util_options_68a048a4"><rect fill="#F1F1F1" height="79.1875" rx="2.5" ry="2.5" style="stroke:#181818;stroke-width:0.5;" width="174" x="789" y="267.5"/><text fill="#000000" font-family="sans-serif" font-size="14" lengthAdjust="spacing" textLength="94" x="799" y="283.4951">joiUtilOptions</text><line style="stroke:#181818;stroke-width:1.0;" x1="790" x2="962" y1="286.7969" y2="286.7969"/><text fill="#000000" font-family="sans-serif" font-size="14" lengthAdjust="spacing" textLength="154" x="799" y="303.792">ValidationOptions &amp; {</text><text fill="#000000" font-family="sans-serif" font-size="14" lengthAdjust="spacing" textLength="129" x="807" y="320.0889">logger?: JoiLogger</text><text fill="#000000" font-family="sans-serif" font-size="14" lengthAdjust="spacing" textLength="9" x="799" y="336.3857">}</text></g><!--class error_with_payload_68a048a4--><g id="elem_error_with_payload_68a048a4"><rect codeLine="25" fill="#F1F1F1" height="96.8906" id="error_with_payload_68a048a4" rx="2.5" ry="2.5" style="stroke:#181818;stroke-width:0.5;" width="215" x="998.5" y="258.5"/><ellipse cx="1040.05" cy="274.5" fill="#ADD1B2" rx="11" ry="11" style="stroke:#181818;stroke-width:1.0;"/><path d="M1043.0188,280.1406 Q1042.4406,280.4375 1041.8,280.5781 Q1041.1594,280.7344 1040.4563,280.7344 Q1037.9563,280.7344 1036.6281,279.0938 Q1035.3156,277.4375 1035.3156,274.3125 Q1035.3156,271.1875 1036.6281,269.5313 Q1037.9563,267.875 1040.4563,267.875 Q1041.1594,267.875 1041.8,268.0313 Q1042.4563,268.1875 1043.0188,268.4844 L1043.0188,271.2031 Q1042.3938,270.625 1041.8,270.3594 Q1041.2063,270.0781 1040.5813,270.0781 Q1039.2375,270.0781 1038.55,271.1563 Q1037.8625,272.2188 1037.8625,274.3125 Q1037.8625,276.4063 1038.55,277.4844 Q1039.2375,278.5469 1040.5813,278.5469 Q1041.2063,278.5469 1041.8,278.2813 Q1042.3938,278 1043.0188,277.4219 L1043.0188,280.1406 Z " fill="#000000"/><text fill="#000000" font-family="sans-serif" font-size="14" lengthAdjust="spacing" textLength="124" x="1059.95" y="279.3467">ErrorWithPayload</text><line style="stroke:#181818;stroke-width:0.5;" x1="999.5" x2="1212.5" y1="290.5" y2="290.5"/><text fill="#000000" font-family="sans-serif" font-size="14" lengthAdjust="spacing" textLength="75" x="1004.5" y="307.4951">payload: T</text><line style="stroke:#181818;stroke-width:0.5;" x1="999.5" x2="1212.5" y1="314.7969" y2="314.7969"/><text fill="#000000" font-family="sans-serif" font-size="14" lengthAdjust="spacing" textLength="203" x="1004.5" y="331.792">constructor(message: string,</text><text fill="#000000" font-family="sans-serif" font-size="14" lengthAdjust="spacing" textLength="80" x="1024.5" y="348.0889">payload: T)</text></g><!--class joi_util_68a048a4--><g id="elem_joi_util_68a048a4"><rect codeLine="29" fill="#F1F1F1" height="194.6719" id="joi_util_68a048a4" rx="2.5" ry="2.5" style="stroke:#181818;stroke-width:0.5;" width="323" x="805.5" y="521"/><ellipse cx="942.75" cy="537" fill="#ADD1B2" rx="11" ry="11" style="stroke:#181818;stroke-width:1.0;"/><path d="M945.7188,542.6406 Q945.1406,542.9375 944.5,543.0781 Q943.8594,543.2344 943.1563,543.2344 Q940.6563,543.2344 939.3281,541.5938 Q938.0156,539.9375 938.0156,536.8125 Q938.0156,533.6875 939.3281,532.0313 Q940.6563,530.375 943.1563,530.375 Q943.8594,530.375 944.5,530.5313 Q945.1563,530.6875 945.7188,530.9844 L945.7188,533.7031 Q945.0938,533.125 944.5,532.8594 Q943.9063,532.5781 943.2813,532.5781 Q941.9375,532.5781 941.25,533.6563 Q940.5625,534.7188 940.5625,536.8125 Q940.5625,538.9063 941.25,539.9844 Q941.9375,541.0469 943.2813,541.0469 Q943.9063,541.0469 944.5,540.7813 Q945.0938,540.5 945.7188,539.9219 L945.7188,542.6406 Z " fill="#000000"/><text fill="#000000" font-family="sans-serif" font-size="14" lengthAdjust="spacing" textLength="40" x="963.25" y="541.8467">JoiUtil</text><line style="stroke:#181818;stroke-width:0.5;" x1="806.5" x2="1127.5" y1="553" y2="553"/><line style="stroke:#181818;stroke-width:0.5;" x1="806.5" x2="1127.5" y1="561" y2="561"/><polygon fill="#FFFF44" points="816.5,585.9453,820.5,589.9453,816.5,593.9453,812.5,589.9453" style="stroke:#B38D22;stroke-width:1.0;"/><text fill="#000000" font-family="sans-serif" font-size="14" lengthAdjust="spacing" textLength="229" x="825.5" y="577.9951">_validate(objectToValidate: any,</text><text fill="#000000" font-family="sans-serif" font-size="14" lengthAdjust="spacing" textLength="277" x="845.5" y="594.292">schema: Schema | ObjectSchema&lt;T&gt;,</text><text fill="#000000" font-family="sans-serif" font-size="14" lengthAdjust="spacing" textLength="185" x="845.5" y="610.5889">options?: joiUtilOptions): T</text><text fill="#000000" font-family="sans-serif" font-size="14" lengthAdjust="spacing" textLength="219" x="825.5" y="626.8857">sanitize(objectToValidate: any,</text><text fill="#000000" font-family="sans-serif" font-size="14" lengthAdjust="spacing" textLength="277" x="845.5" y="643.1826">schema: Schema | ObjectSchema&lt;T&gt;,</text><text fill="#000000" font-family="sans-serif" font-size="14" lengthAdjust="spacing" textLength="227" x="845.5" y="659.4795">joiUtilOptions?: joiUtilOptions): T</text><text fill="#000000" font-family="sans-serif" font-size="14" lengthAdjust="spacing" textLength="222" x="825.5" y="675.7764">validate(objectToValidate: any,</text><text fill="#000000" font-family="sans-serif" font-size="14" lengthAdjust="spacing" textLength="277" x="845.5" y="692.0732">schema: Schema | ObjectSchema&lt;T&gt;,</text><text fill="#000000" font-family="sans-serif" font-size="14" lengthAdjust="spacing" textLength="227" x="845.5" y="708.3701">joiUtilOptions?: joiUtilOptions): T</text></g><g id="elem_memoize_factory_7591f384"><rect fill="#F1F1F1" height="36.2969" style="stroke:#181818;stroke-width:0.5;" width="133" x="2226.5" y="289"/><text fill="#000000" font-family="sans-serif" font-size="14" lengthAdjust="spacing" textLength="119" x="2233.5" y="303.9951">memoizeFactory</text><line style="stroke:#181818;stroke-width:0.5;" x1="2227.5" x2="2358.5" y1="309.2969" y2="309.2969"/></g><!--entity object_type_a28a167d--><g id="elem_object_type_a28a167d"><rect fill="#F1F1F1" height="46.5938" rx="2.5" ry="2.5" style="stroke:#181818;stroke-width:0.5;" width="148" x="1256" y="595"/><text fill="#000000" font-family="sans-serif" font-size="14" lengthAdjust="spacing" textLength="81" x="1266" y="610.9951">ObjectType</text><line style="stroke:#181818;stroke-width:1.0;" x1="1257" x2="1403" y1="614.2969" y2="614.2969"/><text fill="#000000" font-family="sans-serif" font-size="14" lengthAdjust="spacing" textLength="128" x="1266" y="631.292">{ [k: string]: any }</text></g><!--class object_util_a28a167d--><g id="elem_object_util_a28a167d"><rect codeLine="41" fill="#F1F1F1" height="292.4531" id="object_util_a28a167d" rx="2.5" ry="2.5" style="stroke:#181818;stroke-width:0.5;" width="395" x="22.5" y="161"/><ellipse cx="181.25" cy="177" fill="#ADD1B2" rx="11" ry="11" style="stroke:#181818;stroke-width:1.0;"/><path d="M184.2188,182.6406 Q183.6406,182.9375 183,183.0781 Q182.3594,183.2344 181.6563,183.2344 Q179.1563,183.2344 177.8281,181.5938 Q176.5156,179.9375 176.5156,176.8125 Q176.5156,173.6875 177.8281,172.0313 Q179.1563,170.375 181.6563,170.375 Q182.3594,170.375 183,170.5313 Q183.6563,170.6875 184.2188,170.9844 L184.2188,173.7031 Q183.5938,173.125 183,172.8594 Q182.4063,172.5781 181.7813,172.5781 Q180.4375,172.5781 179.75,173.6563 Q179.0625,174.7188 179.0625,176.8125 Q179.0625,178.9063 179.75,179.9844 Q180.4375,181.0469 181.7813,181.0469 Q182.4063,181.0469 183,180.7813 Q183.5938,180.5 184.2188,179.9219 L184.2188,182.6406 Z " fill="#000000"/><text fill="#000000" font-family="sans-serif" font-size="14" lengthAdjust="spacing" textLength="69" x="201.75" y="181.8467">ObjectUtil</text><line style="stroke:#181818;stroke-width:0.5;" x1="23.5" x2="416.5" y1="193" y2="193"/><line style="stroke:#181818;stroke-width:0.5;" x1="23.5" x2="416.5" y1="201" y2="201"/><text fill="#000000" font-family="sans-serif" font-size="14" lengthAdjust="spacing" textLength="226" x="28.5" y="217.9951">deepClone(objectToClone: T): T</text><text fill="#000000" font-family="sans-serif" font-size="14" lengthAdjust="spacing" textLength="129" x="28.5" y="234.292">deepEqual(a: any,</text><text fill="#000000" font-family="sans-serif" font-size="14" lengthAdjust="spacing" textLength="116" x="48.5" y="250.5889">b: any): boolean</text><text fill="#000000" font-family="sans-serif" font-size="14" lengthAdjust="spacing" textLength="310" x="28.5" y="266.8857">deepNullToUndefined(objectWithNulls: T): T</text><text fill="#000000" font-family="sans-serif" font-size="14" lengthAdjust="spacing" textLength="161" x="28.5" y="283.1826">deepStringify(obj: any,</text><text fill="#000000" font-family="sans-serif" font-size="14" lengthAdjust="spacing" textLength="77" x="48.5" y="299.4795">options?: {</text><text fill="#000000" font-family="sans-serif" font-size="14" lengthAdjust="spacing" textLength="137" x="48.5" y="315.7764">isSorted?: boolean;</text><text fill="#000000" font-family="sans-serif" font-size="14" lengthAdjust="spacing" textLength="205" x="48.5" y="332.0732">compact?: boolean | number</text><text fill="#000000" font-family="sans-serif" font-size="14" lengthAdjust="spacing" textLength="63" x="28.5" y="348.3701">}): string</text><text fill="#000000" font-family="sans-serif" font-size="14" lengthAdjust="spacing" textLength="120" x="28.5" y="364.667">pickByList(obj: T,</text><text fill="#000000" font-family="sans-serif" font-size="14" lengthAdjust="spacing" textLength="206" x="48.5" y="380.9639">keyList: (L | string)[]): Pick&lt;T,</text><text fill="#000000" font-family="sans-serif" font-size="14" lengthAdjust="spacing" textLength="20" x="48.5" y="397.2607">L&gt;</text><text fill="#000000" font-family="sans-serif" font-size="14" lengthAdjust="spacing" textLength="175" x="28.5" y="413.5576">pickByObjectKeys(obj: T,</text><text fill="#000000" font-family="sans-serif" font-size="14" lengthAdjust="spacing" textLength="363" x="48.5" y="429.8545">objWithPickKeys: Partial&lt;T&gt; | ObjectType): Pick&lt;T,</text><text fill="#000000" font-family="sans-serif" font-size="14" lengthAdjust="spacing" textLength="20" x="48.5" y="446.1514">L&gt;</text></g><g id="elem_regex_util_4ac1c785"><rect fill="#F1F1F1" height="44.5938" style="stroke:#181818;stroke-width:0.5;" width="104" x="1439" y="596"/><text fill="#000000" font-family="sans-serif" font-size="14" lengthAdjust="spacing" textLength="64" x="1459" y="610.9951">regexUtil</text><line style="stroke:#181818;stroke-width:0.5;" x1="1440" x2="1542" y1="616.2969" y2="616.2969"/><ellipse cx="1450" cy="629.9453" fill="none" rx="3" ry="3" style="stroke:#038048;stroke-width:1.0;"/><text fill="#000000" font-family="sans-serif" font-size="14" lengthAdjust="spacing" textLength="78" x="1459" y="633.292">uuid: const</text></g><!--class single_threshold_promise_174db0f3--><g id="elem_single_threshold_promise_174db0f3"><rect codeLine="52" fill="#F1F1F1" height="162.0781" id="single_threshold_promise_174db0f3" rx="2.5" ry="2.5" style="stroke:#181818;stroke-width:0.5;" width="703" x="2055.5" y="537.5"/><ellipse cx="2316.75" cy="553.5" fill="#ADD1B2" rx="11" ry="11" style="stroke:#181818;stroke-width:1.0;"/><path d="M2319.7188,559.1406 Q2319.1406,559.4375 2318.5,559.5781 Q2317.8594,559.7344 2317.1563,559.7344 Q2314.6563,559.7344 2313.3281,558.0938 Q2312.0156,556.4375 2312.0156,553.3125 Q2312.0156,550.1875 2313.3281,548.5313 Q2314.6563,546.875 2317.1563,546.875 Q2317.8594,546.875 2318.5,547.0313 Q2319.1563,547.1875 2319.7188,547.4844 L2319.7188,550.2031 Q2319.0938,549.625 2318.5,549.3594 Q2317.9063,549.0781 2317.2813,549.0781 Q2315.9375,549.0781 2315.25,550.1563 Q2314.5625,551.2188 2314.5625,553.3125 Q2314.5625,555.4063 2315.25,556.4844 Q2315.9375,557.5469 2317.2813,557.5469 Q2317.9063,557.5469 2318.5,557.2813 Q2319.0938,557 2319.7188,556.4219 L2319.7188,559.1406 Z " fill="#000000"/><text fill="#000000" font-family="sans-serif" font-size="14" lengthAdjust="spacing" textLength="172" x="2337.25" y="558.3467">SingleThresholdPromise</text><line style="stroke:#181818;stroke-width:0.5;" x1="2056.5" x2="2757.5" y1="569.5" y2="569.5"/><polygon fill="none" points="2066.5,578.1484,2070.5,582.1484,2066.5,586.1484,2062.5,582.1484" style="stroke:#B38D22;stroke-width:1.0;"/><text fill="#000000" font-family="sans-serif" font-size="14" lengthAdjust="spacing" textLength="333" x="2075.5" y="586.4951">_factoryFn: AnyFunctionPromiseNoParams&lt;T&gt;</text><polygon fill="none" points="2066.5,594.4453,2070.5,598.4453,2066.5,602.4453,2062.5,598.4453" style="stroke:#B38D22;stroke-width:1.0;"/><text fill="#000000" font-family="sans-serif" font-size="14" lengthAdjust="spacing" textLength="151" x="2075.5" y="602.792">_rejectPromises: void</text><text fill="#000000" font-family="sans-serif" font-size="14" lengthAdjust="spacing" textLength="157" x="2075.5" y="619.0889">promise: Promise&lt;T&gt;</text><line style="stroke:#181818;stroke-width:0.5;" x1="2056.5" x2="2757.5" y1="626.3906" y2="626.3906"/><polygon fill="#FFFF44" points="2066.5,651.3359,2070.5,655.3359,2066.5,659.3359,2062.5,655.3359" style="stroke:#B38D22;stroke-width:1.0;"/><text fill="#000000" font-family="sans-serif" font-size="14" lengthAdjust="spacing" textLength="68" x="2075.5" y="643.3857">_cache: {</text><text fill="#000000" font-family="sans-serif" font-size="14" lengthAdjust="spacing" textLength="661" x="2091.5" y="659.6826">promises?: { resolve: (value: T | PromiseLike&lt;T&gt;) =&gt; void; reject: (reason?: any) =&gt; void }[]</text><text fill="#000000" font-family="sans-serif" font-size="14" lengthAdjust="spacing" textLength="9" x="2083.5" y="675.9795">}</text><text fill="#000000" font-family="sans-serif" font-size="14" lengthAdjust="spacing" textLength="417" x="2075.5" y="692.2764">constructor(factoryFn: AnyFunctionPromiseNoParams&lt;T&gt;)</text></g><g id="elem_string_util_12a47d9d"><rect fill="#F1F1F1" height="44.5938" style="stroke:#181818;stroke-width:0.5;" width="175" x="1578.5" y="596"/><text fill="#000000" font-family="sans-serif" font-size="14" lengthAdjust="spacing" textLength="63" x="1634.5" y="610.9951">stringUtil</text><line style="stroke:#181818;stroke-width:0.5;" x1="1579.5" x2="1752.5" y1="616.2969" y2="616.2969"/><ellipse cx="1589.5" cy="629.9453" fill="none" rx="3" ry="3" style="stroke:#038048;stroke-width:1.0;"/><text fill="#000000" font-family="sans-serif" font-size="14" lengthAdjust="spacing" textLength="149" x="1598.5" y="633.292">generateUUID: string</text></g><!--class duration_unit_c35fc59d--><g id="elem_duration_unit_c35fc59d"><rect codeLine="62" fill="#F1F1F1" height="178.375" id="duration_unit_c35fc59d" rx="2.5" ry="2.5" style="stroke:#181818;stroke-width:0.5;" width="232" x="1789" y="529.5"/><ellipse cx="1855.75" cy="545.5" fill="#EB937F" rx="11" ry="11" style="stroke:#181818;stroke-width:1.0;"/><path d="M1859.8594,551.5 L1852.1406,551.5 L1852.1406,539.1094 L1859.8594,539.1094 L1859.8594,541.2656 L1854.5938,541.2656 L1854.5938,543.9375 L1859.3594,543.9375 L1859.3594,546.0938 L1854.5938,546.0938 L1854.5938,549.3438 L1859.8594,549.3438 L1859.8594,551.5 Z " fill="#000000"/><text fill="#000000" font-family="sans-serif" font-size="14" lengthAdjust="spacing" textLength="90" x="1876.25" y="550.3467">DurationUnit</text><line style="stroke:#181818;stroke-width:0.5;" x1="1790" x2="2020" y1="561.5" y2="561.5"/><text fill="#000000" font-family="sans-serif" font-size="14" lengthAdjust="spacing" textLength="88" x="1795" y="578.4951">DAY = 'DAY'</text><text fill="#000000" font-family="sans-serif" font-size="14" lengthAdjust="spacing" textLength="112" x="1795" y="594.792">HOUR = 'HOUR'</text><text fill="#000000" font-family="sans-serif" font-size="14" lengthAdjust="spacing" textLength="220" x="1795" y="611.0889">MILLISECOND = 'MILLISECOND'</text><text fill="#000000" font-family="sans-serif" font-size="14" lengthAdjust="spacing" textLength="136" x="1795" y="627.3857">MINUTE = 'MINUTE'</text><text fill="#000000" font-family="sans-serif" font-size="14" lengthAdjust="spacing" textLength="134" x="1795" y="643.6826">MONTH = 'MONTH'</text><text fill="#000000" font-family="sans-serif" font-size="14" lengthAdjust="spacing" textLength="148" x="1795" y="659.9795">SECOND = 'SECOND'</text><text fill="#000000" font-family="sans-serif" font-size="14" lengthAdjust="spacing" textLength="110" x="1795" y="676.2764">WEEK = 'WEEK'</text><text fill="#000000" font-family="sans-serif" font-size="14" lengthAdjust="spacing" textLength="104" x="1795" y="692.5732">YEAR = 'YEAR'</text><line style="stroke:#181818;stroke-width:0.5;" x1="1790" x2="2020" y1="699.875" y2="699.875"/></g><!--entity duration_unit_type_c35fc59d--><g id="elem_duration_unit_type_c35fc59d"><rect fill="#F1F1F1" height="46.5938" rx="2.5" ry="2.5" style="stroke:#181818;stroke-width:0.5;" width="151" x="1254.5" y="807"/><text fill="#000000" font-family="sans-serif" font-size="14" lengthAdjust="spacing" textLength="125" x="1264.5" y="822.9951">DurationUnitType</text><line style="stroke:#181818;stroke-width:1.0;" x1="1255.5" x2="1404.5" y1="826.2969" y2="826.2969"/><text fill="#000000" font-family="sans-serif" font-size="14" lengthAdjust="spacing" textLength="131" x="1264.5" y="843.292">`${DurationUnit}`</text></g><!--class time_util_c35fc59d--><g id="elem_time_util_c35fc59d"><rect codeLine="77" fill="#F1F1F1" height="210.9688" id="time_util_c35fc59d" rx="2.5" ry="2.5" style="stroke:#181818;stroke-width:0.5;" width="301" x="452.5" y="201.5"/><ellipse cx="569.25" cy="217.5" fill="#ADD1B2" rx="11" ry="11" style="stroke:#181818;stroke-width:1.0;"/><path d="M572.2188,223.1406 Q571.6406,223.4375 571,223.5781 Q570.3594,223.7344 569.6563,223.7344 Q567.1563,223.7344 565.8281,222.0938 Q564.5156,220.4375 564.5156,217.3125 Q564.5156,214.1875 565.8281,212.5313 Q567.1563,210.875 569.6563,210.875 Q570.3594,210.875 571,211.0313 Q571.6563,211.1875 572.2188,211.4844 L572.2188,214.2031 Q571.5938,213.625 571,213.3594 Q570.4063,213.0781 569.7813,213.0781 Q568.4375,213.0781 567.75,214.1563 Q567.0625,215.2188 567.0625,217.3125 Q567.0625,219.4063 567.75,220.4844 Q568.4375,221.5469 569.7813,221.5469 Q570.4063,221.5469 571,221.2813 Q571.5938,221 572.2188,220.4219 L572.2188,223.1406 Z " fill="#000000"/><text fill="#000000" font-family="sans-serif" font-size="14" lengthAdjust="spacing" textLength="59" x="589.75" y="222.3467">TimeUtil</text><line style="stroke:#181818;stroke-width:0.5;" x1="453.5" x2="752.5" y1="233.5" y2="233.5"/><text fill="#000000" font-family="sans-serif" font-size="14" lengthAdjust="spacing" textLength="72" x="458.5" y="250.4951">now: Date</text><line style="stroke:#181818;stroke-width:0.5;" x1="453.5" x2="752.5" y1="257.7969" y2="257.7969"/><text fill="#000000" font-family="sans-serif" font-size="14" lengthAdjust="spacing" textLength="156" x="458.5" y="274.792">addToDate(params: {</text><text fill="#000000" font-family="sans-serif" font-size="14" lengthAdjust="spacing" textLength="269" x="478.5" y="291.0889">unit: DurationUnitType | DurationUnit;</text><text fill="#000000" font-family="sans-serif" font-size="14" lengthAdjust="spacing" textLength="109" x="478.5" y="307.3857">value: number;</text><text fill="#000000" font-family="sans-serif" font-size="14" lengthAdjust="spacing" textLength="75" x="478.5" y="323.6826">date: Date</text><text fill="#000000" font-family="sans-serif" font-size="14" lengthAdjust="spacing" textLength="57" x="458.5" y="339.9795">}): Date</text><text fill="#000000" font-family="sans-serif" font-size="14" lengthAdjust="spacing" textLength="231" x="458.5" y="356.2764">dateToUnix(date: Date): number</text><text fill="#000000" font-family="sans-serif" font-size="14" lengthAdjust="spacing" textLength="257" x="458.5" y="372.5732">dateToUnixSec(date: Date): number</text><text fill="#000000" font-family="sans-serif" font-size="14" lengthAdjust="spacing" textLength="256" x="458.5" y="388.8701">unixSecToDate(unix: number): Date</text><text fill="#000000" font-family="sans-serif" font-size="14" lengthAdjust="spacing" textLength="230" x="458.5" y="405.167">unixToDate(unix: number): Date</text></g><g id="elem_timeout_67d0ec7a"><rect fill="#F1F1F1" height="36.2969" style="stroke:#181818;stroke-width:0.5;" width="69" x="1440.5" y="812.5"/><text fill="#000000" font-family="sans-serif" font-size="14" lengthAdjust="spacing" textLength="55" x="1447.5" y="827.4951">timeout</text><line style="stroke:#181818;stroke-width:0.5;" x1="1441.5" x2="1508.5" y1="832.7969" y2="832.7969"/></g><g id="elem_type_util_3bdc4f90"><rect fill="#F1F1F1" height="93.4844" style="stroke:#181818;stroke-width:0.5;" width="287" x="1544.5" y="784"/><text fill="#000000" font-family="sans-serif" font-size="14" lengthAdjust="spacing" textLength="54" x="1661" y="798.9951">typeUtil</text><line style="stroke:#181818;stroke-width:0.5;" x1="1545.5" x2="1830.5" y1="804.2969" y2="804.2969"/><ellipse cx="1555.5" cy="826.0938" fill="#84BE84" rx="3" ry="3" style="stroke:#038048;stroke-width:1.0;"/><text fill="#000000" font-family="sans-serif" font-size="14" lengthAdjust="spacing" textLength="235" x="1564.5" y="821.292">exhaustiveError(message: string,</text><text fill="#000000" font-family="sans-serif" font-size="14" lengthAdjust="spacing" textLength="107" x="1584.5" y="837.5889">_: never): Error</text><ellipse cx="1555.5" cy="858.6875" fill="#84BE84" rx="3" ry="3" style="stroke:#038048;stroke-width:1.0;"/><text fill="#000000" font-family="sans-serif" font-size="14" lengthAdjust="spacing" textLength="261" x="1564.5" y="853.8857">exhaustiveMessage(message: string,</text><text fill="#000000" font-family="sans-serif" font-size="14" lengthAdjust="spacing" textLength="111" x="1584.5" y="870.1826">_: never): string</text></g><g id="elem_express_error_handler_63417b19"><rect fill="#F1F1F1" height="36.2969" style="stroke:#181818;stroke-width:0.5;" width="162" x="3529" y="289"/><text fill="#000000" font-family="sans-serif" font-size="14" lengthAdjust="spacing" textLength="148" x="3536" y="303.9951">expressErrorHandler</text><line style="stroke:#181818;stroke-width:0.5;" x1="3530" x2="3690" y1="309.2969" y2="309.2969"/></g><!--class singleton_async_d88be747--><g id="elem_singleton_async_d88be747"><rect codeLine="96" fill="#F1F1F1" height="210.9688" id="singleton_async_d88be747" rx="2.5" ry="2.5" style="stroke:#181818;stroke-width:0.5;" width="703" x="2793.5" y="513"/><ellipse cx="3086.25" cy="529" fill="#ADD1B2" rx="11" ry="11" style="stroke:#181818;stroke-width:1.0;"/><path d="M3089.2188,534.6406 Q3088.6406,534.9375 3088,535.0781 Q3087.3594,535.2344 3086.6563,535.2344 Q3084.1563,535.2344 3082.8281,533.5938 Q3081.5156,531.9375 3081.5156,528.8125 Q3081.5156,525.6875 3082.8281,524.0313 Q3084.1563,522.375 3086.6563,522.375 Q3087.3594,522.375 3088,522.5313 Q3088.6563,522.6875 3089.2188,522.9844 L3089.2188,525.7031 Q3088.5938,525.125 3088,524.8594 Q3087.4063,524.5781 3086.7813,524.5781 Q3085.4375,524.5781 3084.75,525.6563 Q3084.0625,526.7188 3084.0625,528.8125 Q3084.0625,530.9063 3084.75,531.9844 Q3085.4375,533.0469 3086.7813,533.0469 Q3087.4063,533.0469 3088,532.7813 Q3088.5938,532.5 3089.2188,531.9219 L3089.2188,534.6406 Z " fill="#000000"/><text fill="#000000" font-family="sans-serif" font-size="14" lengthAdjust="spacing" textLength="109" x="3106.75" y="533.8467">SingletonAsync</text><line style="stroke:#181818;stroke-width:0.5;" x1="2794.5" x2="3495.5" y1="545" y2="545"/><polygon fill="none" points="2804.5,553.6484,2808.5,557.6484,2804.5,561.6484,2800.5,557.6484" style="stroke:#B38D22;stroke-width:1.0;"/><text fill="#000000" font-family="sans-serif" font-size="14" lengthAdjust="spacing" textLength="316" x="2813.5" y="561.9951">_factory: AnyFunctionPromiseNoParams&lt;T&gt;</text><text fill="#000000" font-family="sans-serif" font-size="14" lengthAdjust="spacing" textLength="155" x="2813.5" y="578.292">cached: T | undefined</text><text fill="#000000" font-family="sans-serif" font-size="14" lengthAdjust="spacing" textLength="123" x="2813.5" y="594.5889">cleanCache: void</text><text fill="#000000" font-family="sans-serif" font-size="14" lengthAdjust="spacing" textLength="157" x="2813.5" y="610.8857">promise: Promise&lt;T&gt;</text><line style="stroke:#181818;stroke-width:0.5;" x1="2794.5" x2="3495.5" y1="618.1875" y2="618.1875"/><polygon fill="#FFFF44" points="2804.5,651.2813,2808.5,655.2813,2804.5,659.2813,2800.5,655.2813" style="stroke:#B38D22;stroke-width:1.0;"/><text fill="#000000" font-family="sans-serif" font-size="14" lengthAdjust="spacing" textLength="68" x="2813.5" y="635.1826">_cache: {</text><text fill="#000000" font-family="sans-serif" font-size="14" lengthAdjust="spacing" textLength="90" x="2829.5" y="651.4795">singleton?: T</text><text fill="#000000" font-family="sans-serif" font-size="14" lengthAdjust="spacing" textLength="661" x="2829.5" y="667.7764">promises?: { resolve: (value: T | PromiseLike&lt;T&gt;) =&gt; void; reject: (reason?: any) =&gt; void }[]</text><text fill="#000000" font-family="sans-serif" font-size="14" lengthAdjust="spacing" textLength="9" x="2821.5" y="684.0732">}</text><polygon fill="#FFFF44" points="2804.5,692.0234,2808.5,696.0234,2804.5,700.0234,2800.5,696.0234" style="stroke:#B38D22;stroke-width:1.0;"/><text fill="#000000" font-family="sans-serif" font-size="14" lengthAdjust="spacing" textLength="331" x="2813.5" y="700.3701">_rejectPromises(params: { error: Error }): void</text><text fill="#000000" font-family="sans-serif" font-size="14" lengthAdjust="spacing" textLength="400" x="2813.5" y="716.667">constructor(factory: AnyFunctionPromiseNoParams&lt;T&gt;)</text></g><g id="elem_singleton_pattern_9ffe3d49"><rect fill="#F1F1F1" height="36.2969" style="stroke:#181818;stroke-width:0.5;" width="130" x="3531" y="600.5"/><text fill="#000000" font-family="sans-serif" font-size="14" lengthAdjust="spacing" textLength="116" x="3538" y="615.4951">singletonPattern</text><line style="stroke:#181818;stroke-width:0.5;" x1="3532" x2="3660" y1="620.7969" y2="620.7969"/></g><!--entity types_d_ts_c7688ce4--><g id="elem_types_d_ts_c7688ce4"><rect fill="#F1F1F1" height="39.2969" rx="2.5" ry="2.5" style="stroke:#181818;stroke-width:0.5;" width="97" x="2394.5" y="287.5"/><polygon fill="#F1F1F1" points="2474.5,292.5,2474.5,306.5,2486.5,306.5,2486.5,298.5,2480.5,292.5,2474.5,292.5" style="stroke:#181818;stroke-width:0.5;"/><line style="stroke:#181818;stroke-width:0.5;" x1="2480.5" x2="2480.5" y1="292.5" y2="298.5"/><line style="stroke:#181818;stroke-width:0.5;" x1="2486.5" x2="2480.5" y1="298.5" y2="298.5"/><text fill="#000000" font-family="sans-serif" font-size="14" lengthAdjust="spacing" textLength="67" x="2404.5" y="313.4951">types.d.ts</text></g><!--entity any_function_14fe44ed--><g id="elem_any_function_14fe44ed"><rect fill="#F1F1F1" height="46.5938" rx="2.5" ry="2.5" style="stroke:#181818;stroke-width:0.5;" width="159" x="2802.5" y="283.5"/><text fill="#000000" font-family="sans-serif" font-size="14" lengthAdjust="spacing" textLength="88" x="2812.5" y="299.4951">AnyFunction</text><line style="stroke:#181818;stroke-width:1.0;" x1="2803.5" x2="2960.5" y1="302.7969" y2="302.7969"/><text fill="#000000" font-family="sans-serif" font-size="14" lengthAdjust="spacing" textLength="139" x="2812.5" y="319.792">(...args: any[]) =&gt; T</text></g><!--entity any_function_no_params_57476943--><g id="elem_any_function_no_params_57476943"><rect fill="#F1F1F1" height="46.5938" rx="2.5" ry="2.5" style="stroke:#181818;stroke-width:0.5;" width="180" x="3269" y="283.5"/><text fill="#000000" font-family="sans-serif" font-size="14" lengthAdjust="spacing" textLength="160" x="3279" y="299.4951">AnyFunctionNoParams</text><line style="stroke:#181818;stroke-width:1.0;" x1="3270" x2="3448" y1="302.7969" y2="302.7969"/><text fill="#000000" font-family="sans-serif" font-size="14" lengthAdjust="spacing" textLength="51" x="3279" y="319.792">() =&gt; T</text></g><!--entity any_function_promise_no_params_e08eab31--><g id="elem_any_function_promise_no_params_e08eab31"><rect fill="#F1F1F1" height="46.5938" rx="2.5" ry="2.5" style="stroke:#181818;stroke-width:0.5;" width="237" x="2996.5" y="283.5"/><text fill="#000000" font-family="sans-serif" font-size="14" lengthAdjust="spacing" textLength="217" x="3006.5" y="299.4951">AnyFunctionPromiseNoParams</text><line style="stroke:#181818;stroke-width:1.0;" x1="2997.5" x2="3232.5" y1="302.7969" y2="302.7969"/><text fill="#000000" font-family="sans-serif" font-size="14" lengthAdjust="spacing" textLength="132" x="3006.5" y="319.792">() =&gt; Promise&lt;T&gt;</text></g><!--entity any_function_promise_7353b62c--><g id="elem_any_function_promise_7353b62c"><rect fill="#F1F1F1" height="46.5938" rx="2.5" ry="2.5" style="stroke:#181818;stroke-width:0.5;" width="240" x="2527" y="283.5"/><text fill="#000000" font-family="sans-serif" font-size="14" lengthAdjust="spacing" textLength="145" x="2537" y="299.4951">AnyFunctionPromise</text><line style="stroke:#181818;stroke-width:1.0;" x1="2528" x2="2766" y1="302.7969" y2="302.7969"/><text fill="#000000" font-family="sans-serif" font-size="14" lengthAdjust="spacing" textLength="220" x="2537" y="319.792">(...args: any[]) =&gt; Promise&lt;T&gt;</text></g><g id="elem_add_ad2961c0"><rect fill="#F1F1F1" height="44.5938" style="stroke:#181818;stroke-width:0.5;" width="118" x="348" y="41"/><text fill="#000000" font-family="sans-serif" font-size="14" lengthAdjust="spacing" textLength="27" x="393.5" y="55.9951">add</text><line style="stroke:#181818;stroke-width:0.5;" x1="349" x2="465" y1="61.2969" y2="61.2969"/><text fill="#000000" font-family="sans-serif" font-size="14" lengthAdjust="spacing" textLength="106" x="354" y="78.292">date-fns/add.ts</text></g><g id="elem_add_milliseconds_713d12ee"><rect fill="#F1F1F1" height="44.5938" style="stroke:#181818;stroke-width:0.5;" width="204" x="501" y="41"/><text fill="#000000" font-family="sans-serif" font-size="14" lengthAdjust="spacing" textLength="113" x="546.5" y="55.9951">addMilliseconds</text><line style="stroke:#181818;stroke-width:0.5;" x1="502" x2="704" y1="61.2969" y2="61.2969"/><text fill="#000000" font-family="sans-serif" font-size="14" lengthAdjust="spacing" textLength="192" x="507" y="78.292">date-fns/addMilliseconds.ts</text></g><g id="elem_parse_1c089414"><rect fill="#F1F1F1" height="44.5938" style="stroke:#181818;stroke-width:0.5;" width="131" x="740.5" y="41"/><text fill="#000000" font-family="sans-serif" font-size="14" lengthAdjust="spacing" textLength="40" x="786" y="55.9951">parse</text><line style="stroke:#181818;stroke-width:0.5;" x1="741.5" x2="870.5" y1="61.2969" y2="61.2969"/><text fill="#000000" font-family="sans-serif" font-size="14" lengthAdjust="spacing" textLength="119" x="746.5" y="78.292">date-fns/parse.ts</text></g><g id="elem_clone_deep_91af3a80"><rect fill="#F1F1F1" height="44.5938" style="stroke:#181818;stroke-width:0.5;" width="154" x="151" y="41"/><text fill="#000000" font-family="sans-serif" font-size="14" lengthAdjust="spacing" textLength="77" x="189.5" y="55.9951">cloneDeep</text><line style="stroke:#181818;stroke-width:0.5;" x1="152" x2="304" y1="61.2969" y2="61.2969"/><text fill="#000000" font-family="sans-serif" font-size="14" lengthAdjust="spacing" textLength="142" x="157" y="78.292">lodash.clonedeep.ts</text></g><g id="elem_util_6f8bd708"><rect fill="#F1F1F1" height="44.5938" style="stroke:#181818;stroke-width:0.5;" width="50" x="66" y="41"/><text fill="#000000" font-family="sans-serif" font-size="14" lengthAdjust="spacing" textLength="22" x="80" y="55.9951">util</text><line style="stroke:#181818;stroke-width:0.5;" x1="67" x2="115" y1="61.2969" y2="61.2969"/><text fill="#000000" font-family="sans-serif" font-size="14" lengthAdjust="spacing" textLength="38" x="72" y="78.292">util.ts</text></g><!--reverse link joi_util_options_68a048a4 to joi_util_68a048a4--><g id="link_joi_util_options_68a048a4_joi_util_68a048a4"><path codeLine="146" d="M888.79,351.51 C901.65,395.25 921.9,464.11 938.57,520.81 " fill="none" id="joi_util_options_68a048a4-backto-joi_util_68a048a4" style="stroke:#181818;stroke-width:1.0;"/><polygon fill="#181818" points="887.34,346.57,886.02,356.33,888.74,351.37,893.7,354.09,887.34,346.57" style="stroke:#181818;stroke-width:1.0;"/></g><!--reverse link error_with_payload_68a048a4 to joi_util_68a048a4--><g id="link_error_with_payload_68a048a4_joi_util_68a048a4"><path codeLine="147" d="M1082.47,360.39 C1062.81,404.16 1034.25,467.76 1010.45,520.74 " fill="none" id="error_with_payload_68a048a4-backto-joi_util_68a048a4" style="stroke:#181818;stroke-width:1.0;"/><polygon fill="#181818" points="1084.59,355.68,1077.2585,362.2564,1082.5447,360.2425,1084.5585,365.5288,1084.59,355.68" style="stroke:#181818;stroke-width:1.0;"/></g><!--reverse link clone_deep_91af3a80 to object_util_a28a167d--><g id="link_clone_deep_91af3a80_object_util_a28a167d"><path codeLine="148" d="M227.1,91.66 C226.51,109.48 225.69,134.32 224.81,160.81 " fill="none" id="clone_deep_91af3a80-backto-object_util_a28a167d" style="stroke:#181818;stroke-width:1.0;"/><polygon fill="#181818" points="227.28,86.36,222.9993,95.2299,227.1229,91.3575,230.9953,95.4812,227.28,86.36" style="stroke:#181818;stroke-width:1.0;"/></g><!--reverse link util_6f8bd708 to object_util_a28a167d--><g id="link_util_6f8bd708_object_util_a28a167d"><path codeLine="149" d="M105.26,91.2 C114.8,109.05 128.18,134.1 142.44,160.81 " fill="none" id="util_6f8bd708-backto-object_util_a28a167d" style="stroke:#181818;stroke-width:1.0;"/><polygon fill="#181818" points="102.68,86.36,103.4041,96.1822,105.0411,90.7674,110.4559,92.4044,102.68,86.36" style="stroke:#181818;stroke-width:1.0;"/></g><!--reverse link any_function_promise_no_params_e08eab31 to single_threshold_promise_174db0f3--><g id="link_any_function_promise_no_params_e08eab31_single_threshold_promise_174db0f3"><path codeLine="150" d="M3098.6,335.22 C3076.31,369.45 3032.96,426.88 2979,453 C2938.65,472.53 2821.63,459.72 2778,470 C2710.7,485.86 2639.52,511.75 2577.7,537.45 " fill="none" id="any_function_promise_no_params_e08eab31-backto-single_threshold_promise_174db0f3" style="stroke:#181818;stroke-width:1.0;"/><polygon fill="#181818" points="3101.48,330.76,3093.2355,336.1478,3098.7661,334.9594,3099.9545,340.49,3101.48,330.76" style="stroke:#181818;stroke-width:1.0;"/></g><!--reverse link any_function_promise_no_params_e08eab31 to singleton_async_d88be747--><g id="link_any_function_promise_no_params_e08eab31_singleton_async_d88be747"><path codeLine="151" d="M3117.68,335.62 C3121.51,375.17 3128.77,450.08 3134.85,512.74 " fill="none" id="any_function_promise_no_params_e08eab31-backto-singleton_async_d88be747" style="stroke:#181818;stroke-width:1.0;"/><polygon fill="#181818" points="3117.18,330.51,3114.045,339.8466,3117.6507,335.4878,3122.0095,339.0935,3117.18,330.51" style="stroke:#181818;stroke-width:1.0;"/></g><!--reverse link any_function_no_params_57476943 to singleton_pattern_9ffe3d49--><g id="link_any_function_no_params_57476943_singleton_pattern_9ffe3d49"><path codeLine="152" d="M3388.35,334.31 C3421.4,364.86 3475.49,417.77 3514,470 C3546.34,513.86 3574.97,571.85 3588.21,600.28 " fill="none" id="any_function_no_params_57476943-backto-singleton_pattern_9ffe3d49" style="stroke:#181818;stroke-width:1.0;"/><polygon fill="#181818" points="3384.43,330.69,3388.352,339.7243,3388.1122,334.0725,3393.764,333.8327,3384.43,330.69" style="stroke:#181818;stroke-width:1.0;"/></g><!--reverse link add_ad2961c0 to time_util_c35fc59d--><g id="link_add_ad2961c0_time_util_c35fc59d"><path codeLine="153" d="M428.1,90.49 C449.75,117.18 484.87,160.45 517.98,201.24 " fill="none" id="add_ad2961c0-backto-time_util_c35fc59d" style="stroke:#181818;stroke-width:1.0;"/><polygon fill="#181818" points="424.74,86.36,427.2898,95.8731,427.8843,90.2476,433.5099,90.8421,424.74,86.36" style="stroke:#181818;stroke-width:1.0;"/></g><!--reverse link add_milliseconds_713d12ee to time_util_c35fc59d--><g id="link_add_milliseconds_713d12ee_time_util_c35fc59d"><path codeLine="154" d="M603,91.49 C603,118.24 603,160.95 603,201.24 " fill="none" id="add_milliseconds_713d12ee-backto-time_util_c35fc59d" style="stroke:#181818;stroke-width:1.0;"/><polygon fill="#181818" points="603,86.36,599,95.36,603,91.36,607,95.36,603,86.36" style="stroke:#181818;stroke-width:1.0;"/></g><!--reverse link parse_1c089414 to time_util_c35fc59d--><g id="link_parse_1c089414_time_util_c35fc59d"><path codeLine="155" d="M784.15,90.49 C761.72,117.18 725.35,160.45 691.06,201.24 " fill="none" id="parse_1c089414-backto-time_util_c35fc59d" style="stroke:#181818;stroke-width:1.0;"/><polygon fill="#181818" points="787.63,86.36,778.7796,90.6809,784.415,90.1894,784.9066,95.8248,787.63,86.36" style="stroke:#181818;stroke-width:1.0;"/></g><!--SRC=[lHXjKzis-3k_GiTsQt8R32TEdAGT70DwVQ70ZR1UZtAgRCd1nR4pomOobl- -Ho-sPSS9wQwtV8YjvrtFgoo448hThynBqRONnX4xPcosZGX7SeKfBF7G8dwN3FRGqnQIlp2cXD_kIX91iPjoYLd8_rnUbWQX52LUSDyVkDJP6nH21BJAwCSXPGdQvead-U29tO5ZqpsduF98Gi4smZbEvpE6cUsIZkrtqRKcGEX8OCU0B20xEpl5UyGUK6jtTvSa4pv2OyGUKnPHZfvgc23omPQBzWYHQ8uMw01Te17GtBFa-gQDVjj7OotpHZzBFuB-ryHBusH-GTAK9P7sgB3QLmWyKvXo0_aE5_ePH807QeQstyN1QJoPi4JA-He7E9HBt1-GFNj0x88PeP_H0qcYrfHFHeYdIH1DVlaSvVQDqBaqKdW7TdOV1xIcLVfNQ911YsTf44Uyr5Dw6MYkWEHSKJIw-ayI1fG8lAP2Fnc6YZGIcpWOeM9_1N9Hywtq7Te-IP8u-HYajnTa7iQ4Idym0SGF00MdId2JNppGdoQPS7vhoZWd4rPtaEQ6h6WNR2MixYXbqJlbXY8mAjUNrV-0yBro1skfH1d7sZzCfbXk1FTksPICqALyedzqnDJorNY_YAPoANYl6ebsQIe88r6G1dz_9vLLHUirVz_DRgvvKIl6APl6u01TZZ9C6bHKejCRMdvtO2zLeAm59KWr6z8P4AllKACCodfgB84dT7sNfzcDRYNDgQq45RcarSfqAjIMwIIwxf5eluL_vKgahXa5GNRoLqR25gdutPKh87NZE6GagZ2SPM4uZgyYolm0-hlM8AfEO7YJZakvmS2VjsIJCJILQVga8G6_Z9EKqOD2-qkDyUBf369I8Y0XecpgGX_-72tQkH_BsWoykz_dfm5FbTfnhlIEIUW8jKv1XE9gGzSUeGjWULNGdUxNPAaWl6TpNfC8AzbsW4fWGH19qe24aAD5rkgcka95FJ4JDc6FHRZbIaNR9fxbEODUfQTdMG0zIFQmvZvq2LiCsVWsOVmMnkX54ay3pjGObIYSvZWyKqXimMXrzupH8zkKHw3wYd1fMXb0i9B7uJqWMr3UcSWssBnMTHhSCV26d8nYhhm4Qh5J84uOuN5qe78knwF5zOrGiJ1rwv9y7OtGOJH_dKMUo1wjuIm6fvCf1oqcZrAZQNXbg5Mx_gR2ZUQlSADyZwNcUZHLZXNXL4iLJwj3R8SEQIMU4nQn1BhXrTNRurfUvw8Pf3xQFiuIEK6le95BqLG3S0OGx7LxljUh23y-_8H-Go_WyQA0lJc_-aC0nRE4VdXxUlhsykJe_EnO88sbINDsDJvHQF5cOCxFncyaGhoKy59WNTR7avFt0YwU9VJJoQ6qJJnVD7NWwevb8owsNJPYqr4hs_6N7vzCkiMNvbuy3gQiY6KA2nN91cSJIiVniPXpCva-PPiJnewMh89wCK5vvzFbf9fT3bJJKWZNxK-ybcqN5g9B1u-jah2TosWWksJUMieeVgYfo1INtg1OvKpj1ifdoUer8nmRPsdXP7Z7CENscEUGfLbSC84Joz28N92XwRhKi_tXNgN8sECjoNWQt3DvRbnrxCFwM0_MIhf62HyKxmOo6eiv_xHXZpDeeboTMzKxXYPiTQsEONg-MKqXhNf38XhgBu2SKvryRnK6zxksvRZMq12qM6666Wbf71a30bROPdsdH_kEUMusvmlG7F9vvDNOY81XEXYupB6ToXb_QQ0KN30Fnl_xZ36dpAOpfc7AbDMklZvqvg15kpP_H0k3tLErZIm_KvbuST0vKYwgiouFhur7rxhXPJga661vMCmlrZB2-TVgqFTPbzgRv9WeJbwKASVkqEzxJjyyROWpbDYO9jwbkwd9GN7ACR0C1Xwp6pIMkY3eExxsYXG009m3iDiRCgjlzIg9AKTBXSooVMRRp1mgucSul08tvuhubLS78BLsHM3Ec6RbKOnLJk4Ub51_Q7TNcv47VBqvtsX0VYWi3M5x0qRShhNQa5e2Rc1FGovkQfZJxNNTViTxrfnlZj8pHbKJl7fL9GRgZX-fh1KB30lSSuUTZiVAJfXN6HmNL7fIYWdj3FkMPuwiNDglWC-lnfP7820_16485aE3eBmGE3M0sB6wrEemjaAwAM2r9aW4_GqXtp1OEnZQbjqaL5BKHOd_vLkHdMosix_wacaDpvghdYtK_Csi61jkCzSpLEuijz067r6ARyEQsaAhn-T_5xJKfHj4BJSQ4D5mnjMiHg8-HzUOV-kOgadrBm00]--></g></svg>