<?xml version="1.0" encoding="us-ascii" standalone="no"?><svg xmlns="http://www.w3.org/2000/svg" xmlns:xlink="http://www.w3.org/1999/xlink" contentStyleType="text/css" height="532px" preserveAspectRatio="none" style="width:1219px;height:531px;background:#FFFFFF;" version="1.1" viewBox="0 0 1219 531" width="1219.4px" zoomAndPan="magnify"><defs/><g><!--cluster src_entity_cache_c60ace52--><g id="cluster_src_entity_cache_c60ace52"><path d="M11.123,33.6 L100.723,33.6 A2.625,2.625 0 0 1 102.473,35.35 L107.373,49.2078 L707.623,49.2078 A1.75,1.75 0 0 1 709.373,50.9578 L709.373,525.35 A1.75,1.75 0 0 1 707.623,527.1 L11.123,527.1 A1.75,1.75 0 0 1 9.373,525.35 L9.373,35.35 A1.75,1.75 0 0 1 11.123,33.6 " fill="none" style="stroke:#000000;stroke-width:1.0499999999999998;"/><line style="stroke:#000000;stroke-width:1.0499999999999998;" x1="9.373" x2="107.373" y1="49.2078" y2="49.2078"/><text fill="#000000" font-family="sans-serif" font-size="9.8" font-weight="bold" lengthAdjust="spacing" textLength="88.9" x="12.173" y="44.0966">src/entity-cache</text></g><!--cluster beecode_msh_util_lib_95bf45f2--><g id="cluster_beecode_msh_util_lib_95bf45f2"><path d="M727.923,34.3 L853.223,34.3 A2.625,2.625 0 0 1 854.973,36.05 L859.873,49.9078 L923.223,49.9078 A1.75,1.75 0 0 1 924.973,51.6578 L924.973,99.75 A1.75,1.75 0 0 1 923.223,101.5 L727.923,101.5 A1.75,1.75 0 0 1 726.173,99.75 L726.173,36.05 A1.75,1.75 0 0 1 727.923,34.3 " fill="none" style="stroke:#000000;stroke-width:1.0499999999999998;"/><line style="stroke:#000000;stroke-width:1.0499999999999998;" x1="726.173" x2="859.873" y1="49.9078" y2="49.9078"/><text fill="#000000" font-family="sans-serif" font-size="9.8" font-weight="bold" lengthAdjust="spacing" textLength="124.6" x="728.973" y="44.7966">@beecode/msh-util/lib</text></g><!--cluster rxjs_7c7990f6--><g id="cluster_rxjs_7c7990f6"><path d="M943.523,4.2 L964.523,4.2 A2.625,2.625 0 0 1 966.273,5.95 L971.173,19.8078 L1213.023,19.8078 A1.75,1.75 0 0 1 1214.773,21.5578 L1214.773,116.55 A1.75,1.75 0 0 1 1213.023,118.3 L943.523,118.3 A1.75,1.75 0 0 1 941.773,116.55 L941.773,5.95 A1.75,1.75 0 0 1 943.523,4.2 " fill="none" style="stroke:#000000;stroke-width:1.0499999999999998;"/><line style="stroke:#000000;stroke-width:1.0499999999999998;" x1="941.773" x2="971.173" y1="19.8078" y2="19.8078"/><text fill="#000000" font-family="sans-serif" font-size="9.8" font-weight="bold" lengthAdjust="spacing" textLength="20.3" x="944.573" y="14.6966">rxjs</text></g><!--cluster internal_2be5c17e--><g id="cluster_internal_2be5c17e"><path d="M1056.923,34.3 L1101.723,34.3 A2.625,2.625 0 0 1 1103.473,36.05 L1108.373,49.9078 L1196.223,49.9078 A1.75,1.75 0 0 1 1197.973,51.6578 L1197.973,99.75 A1.75,1.75 0 0 1 1196.223,101.5 L1056.923,101.5 A1.75,1.75 0 0 1 1055.173,99.75 L1055.173,36.05 A1.75,1.75 0 0 1 1056.923,34.3 " fill="none" style="stroke:#000000;stroke-width:1.0499999999999998;"/><line style="stroke:#000000;stroke-width:1.0499999999999998;" x1="1055.173" x2="1108.373" y1="49.9078" y2="49.9078"/><text fill="#000000" font-family="sans-serif" font-size="9.8" font-weight="bold" lengthAdjust="spacing" textLength="44.1" x="1057.973" y="44.7966">internal</text></g><!--entity entity_cache_6fc31f5--><g id="elem_entity_cache_6fc31f5"><rect fill="#F1F1F1" height="32.6156" rx="1.75" ry="1.75" style="stroke:#181818;stroke-width:0.3499999999999999;" width="151.2" x="424.473" y="58.1"/><text fill="#000000" font-family="sans-serif" font-size="9.8" lengthAdjust="spacing" textLength="59.5" x="431.473" y="69.2966">EntityCache</text><line style="stroke:#181818;stroke-width:0.6999999999999998;" x1="425.173" x2="574.973" y1="71.6078" y2="71.6078"/><text fill="#000000" font-family="sans-serif" font-size="9.8" lengthAdjust="spacing" textLength="137.2" x="431.473" y="83.5044">{ id: string; entity: ENTITY }</text></g><!--entity entity_cache_call_back_6fc31f5--><g id="elem_entity_cache_call_back_6fc31f5"><rect fill="#F1F1F1" height="32.6156" rx="1.75" ry="1.75" style="stroke:#181818;stroke-width:0.3499999999999999;" width="231" x="46.473" y="230.3"/><text fill="#000000" font-family="sans-serif" font-size="9.8" lengthAdjust="spacing" textLength="102.9" x="53.473" y="241.4966">EntityCacheCallBack</text><line style="stroke:#181818;stroke-width:0.6999999999999998;" x1="47.173" x2="276.773" y1="243.8078" y2="243.8078"/><text fill="#000000" font-family="sans-serif" font-size="9.8" lengthAdjust="spacing" textLength="217" x="53.473" y="255.7044">(cbParams: EntityCache&lt;ENTITY&gt;) =&gt; void</text></g><!--entity entity_cache_subscription_6fc31f5--><g id="elem_entity_cache_subscription_6fc31f5"><rect fill="#F1F1F1" height="32.6156" rx="1.75" ry="1.75" style="stroke:#181818;stroke-width:0.3499999999999999;" width="149.1" x="135.723" y="58.1"/><text fill="#000000" font-family="sans-serif" font-size="9.8" lengthAdjust="spacing" textLength="121.1" x="142.723" y="69.2966">EntityCacheSubscription</text><line style="stroke:#181818;stroke-width:0.6999999999999998;" x1="136.423" x2="284.123" y1="71.6078" y2="71.6078"/><text fill="#000000" font-family="sans-serif" font-size="9.8" lengthAdjust="spacing" textLength="135.1" x="142.723" y="83.5044">{ unsubscribe: () =&gt; void }</text></g><!--class entity_cache_memory_6fc31f5--><g id="elem_entity_cache_memory_6fc31f5"><rect codeLine="17" fill="#F1F1F1" height="227.5328" id="entity_cache_memory_6fc31f5" rx="1.75" ry="1.75" style="stroke:#181818;stroke-width:0.3499999999999999;" width="395.5" x="302.323" y="133"/><ellipse cx="447.048" cy="144.2" fill="#ADD1B2" rx="7.7" ry="7.7" style="stroke:#181818;stroke-width:0.6999999999999998;"/><path d="M449.1261,148.1484 Q448.7214,148.3562 448.273,148.4547 Q447.8246,148.5641 447.3324,148.5641 Q445.5824,148.5641 444.6527,147.4156 Q443.7339,146.2562 443.7339,144.0687 Q443.7339,141.8812 444.6527,140.7219 Q445.5824,139.5625 447.3324,139.5625 Q447.8246,139.5625 448.273,139.6719 Q448.7324,139.7812 449.1261,139.9891 L449.1261,141.8922 Q448.6886,141.4875 448.273,141.3016 Q447.8574,141.1047 447.4199,141.1047 Q446.4792,141.1047 445.998,141.8594 Q445.5167,142.6031 445.5167,144.0687 Q445.5167,145.5344 445.998,146.2891 Q446.4792,147.0328 447.4199,147.0328 Q447.8574,147.0328 448.273,146.8469 Q448.6886,146.65 449.1261,146.2453 L449.1261,148.1484 Z " fill="#000000"/><text fill="#000000" font-family="sans-serif" font-size="9.8" lengthAdjust="spacing" textLength="100.1" x="461.398" y="147.5927">EntityCacheMemory</text><line style="stroke:#181818;stroke-width:0.3499999999999999;" x1="303.023" x2="697.123" y1="155.4" y2="155.4"/><polygon fill="none" points="310.023,189.9734,312.823,192.7734,310.023,195.5734,307.223,192.7734" style="stroke:#B38D22;stroke-width:0.6999999999999998;"/><text fill="#000000" font-family="sans-serif" font-size="9.8" lengthAdjust="spacing" textLength="59.5" x="316.323" y="167.2966">_memory: {</text><text fill="#000000" font-family="sans-serif" font-size="9.8" lengthAdjust="spacing" textLength="59.5" x="330.323" y="178.7044">[k: string]: {</text><text fill="#000000" font-family="sans-serif" font-size="9.8" lengthAdjust="spacing" textLength="77.7" x="330.323" y="190.1122">entity?: ENTITY;</text><text fill="#000000" font-family="sans-serif" font-size="9.8" lengthAdjust="spacing" textLength="102.2" x="330.323" y="201.52">timeoutMs?: number</text><text fill="#000000" font-family="sans-serif" font-size="9.8" lengthAdjust="spacing" textLength="6.3" x="316.323" y="212.9278">}</text><text fill="#000000" font-family="sans-serif" font-size="9.8" lengthAdjust="spacing" textLength="6.3" x="316.323" y="224.3356">}</text><polygon fill="none" points="310.023,229.9008,312.823,232.7008,310.023,235.5008,307.223,232.7008" style="stroke:#B38D22;stroke-width:0.6999999999999998;"/><text fill="#000000" font-family="sans-serif" font-size="9.8" lengthAdjust="spacing" textLength="40.6" x="316.323" y="235.7435">_subject</text><line style="stroke:#181818;stroke-width:0.3499999999999999;" x1="303.023" x2="697.123" y1="240.8547" y2="240.8547"/><polygon fill="#FFFF44" points="310.023,246.9086,312.823,249.7086,310.023,252.5086,307.223,249.7086" style="stroke:#B38D22;stroke-width:0.6999999999999998;"/><text fill="#000000" font-family="sans-serif" font-size="9.8" lengthAdjust="spacing" textLength="335.3" x="316.323" y="252.7513">_calculateTimeout(timeoutOffsetMs?: number): number | undefined</text><polygon fill="#FFFF44" points="310.023,258.3164,312.823,261.1164,310.023,263.9164,307.223,261.1164" style="stroke:#B38D22;stroke-width:0.6999999999999998;"/><text fill="#000000" font-family="sans-serif" font-size="9.8" lengthAdjust="spacing" textLength="237.3" x="316.323" y="264.1591">_timeoutExpired(timeoutMs?: number): boolean</text><text fill="#000000" font-family="sans-serif" font-size="9.8" lengthAdjust="spacing" textLength="100.8" x="316.323" y="275.5669">getById(id: string): {</text><text fill="#000000" font-family="sans-serif" font-size="9.8" lengthAdjust="spacing" textLength="120.4" x="330.323" y="286.9747">needToFetch?: boolean;</text><text fill="#000000" font-family="sans-serif" font-size="9.8" lengthAdjust="spacing" textLength="74.2" x="330.323" y="298.3825">entity?: ENTITY</text><text fill="#000000" font-family="sans-serif" font-size="9.8" lengthAdjust="spacing" textLength="6.3" x="316.323" y="309.7903">}</text><text fill="#000000" font-family="sans-serif" font-size="9.8" lengthAdjust="spacing" textLength="176.4" x="316.323" y="321.1981">set(params: EntityCache&lt;ENTITY&gt;,</text><text fill="#000000" font-family="sans-serif" font-size="9.8" lengthAdjust="spacing" textLength="162.4" x="330.323" y="332.606">timeoutOffsetMs?: number): void</text><text fill="#000000" font-family="sans-serif" font-size="9.8" lengthAdjust="spacing" textLength="119" x="316.323" y="344.0138">subscribeById(id: string,</text><text fill="#000000" font-family="sans-serif" font-size="9.8" lengthAdjust="spacing" textLength="363.3" x="330.323" y="355.4216">callback: (par: EntityCache&lt;ENTITY&gt;) =&gt; void): EntityCacheSubscription</text></g><!--class entity_cache_promise_service_90748edb--><g id="elem_entity_cache_promise_service_90748edb"><rect codeLine="26" fill="#F1F1F1" height="113.4547" id="entity_cache_promise_service_90748edb" rx="1.75" ry="1.75" style="stroke:#181818;stroke-width:0.3499999999999999;" width="365.4" x="20.573" y="402.5"/><ellipse cx="132.048" cy="413.7" fill="#A9DCDF" rx="7.7" ry="7.7" style="stroke:#181818;stroke-width:0.6999999999999998;"/><path d="M132.1246,410.4406 L131.3152,413.9953 L132.9449,413.9953 L132.1246,410.4406 Z M131.0855,408.8766 L133.1746,408.8766 L135.5261,417.55 L133.8089,417.55 L133.273,415.4062 L130.9761,415.4062 L130.4511,417.55 L128.7449,417.55 L131.0855,408.8766 Z " fill="#000000"/><text fill="#000000" font-family="sans-serif" font-size="9.8" font-style="italic" lengthAdjust="spacing" textLength="136.5" x="146.398" y="417.0927">EntityCachePromiseService</text><line style="stroke:#181818;stroke-width:0.3499999999999999;" x1="21.273" x2="385.273" y1="424.9" y2="424.9"/><polygon fill="none" points="28.273,430.9539,31.073,433.7539,28.273,436.5539,25.473,433.7539" style="stroke:#B38D22;stroke-width:0.6999999999999998;"/><text fill="#000000" font-family="sans-serif" font-size="9.8" lengthAdjust="spacing" textLength="182" x="34.573" y="436.7966">_dao: EntityCacheMemory&lt;ENTITY&gt;</text><polygon fill="none" points="28.273,442.3617,31.073,445.1617,28.273,447.9617,25.473,445.1617" style="stroke:#B38D22;stroke-width:0.6999999999999998;"/><text fill="#000000" font-family="sans-serif" font-size="9.8" font-style="italic" lengthAdjust="spacing" textLength="131.6" x="34.573" y="448.2044">_timeoutOffsetMs: number</text><line style="stroke:#181818;stroke-width:0.3499999999999999;" x1="21.273" x2="385.273" y1="453.3156" y2="453.3156"/><polygon fill="#FFFF44" points="28.273,459.3695,31.073,462.1695,28.273,464.9695,25.473,462.1695" style="stroke:#B38D22;stroke-width:0.6999999999999998;"/><text fill="#000000" font-family="sans-serif" font-size="9.8" font-style="italic" lengthAdjust="spacing" textLength="193.2" x="34.573" y="465.2122">_entityAsync(id: ID): Promise&lt;ENTITY&gt;</text><polygon fill="#FFFF44" points="28.273,470.7773,31.073,473.5773,28.273,476.3773,25.473,473.5773" style="stroke:#B38D22;stroke-width:0.6999999999999998;"/><text fill="#000000" font-family="sans-serif" font-size="9.8" lengthAdjust="spacing" textLength="245.7" x="34.573" y="476.62">constructor(dao?: EntityCacheMemory&lt;ENTITY&gt;)</text><text fill="#000000" font-family="sans-serif" font-size="9.8" lengthAdjust="spacing" textLength="124.6" x="34.573" y="488.0278">forceRefresh(id: ID): void</text><text fill="#000000" font-family="sans-serif" font-size="9.8" lengthAdjust="spacing" textLength="180.6" x="34.573" y="499.4356">subscribeToEntityChangeById(id: ID,</text><text fill="#000000" font-family="sans-serif" font-size="9.8" lengthAdjust="spacing" textLength="333.2" x="48.573" y="510.8435">callback: EntityCacheCallBack&lt;ENTITY&gt;): EntityCacheSubscription</text></g><g id="elem_time_util_e2c2a0e8"><rect fill="#F1F1F1" height="31.2156" style="stroke:#181818;stroke-width:0.3499999999999999;" width="176.4" x="737.373" y="58.8"/><text fill="#000000" font-family="sans-serif" font-size="9.8" lengthAdjust="spacing" textLength="41.3" x="804.923" y="69.2966">TimeUtil</text><line style="stroke:#181818;stroke-width:0.3499999999999999;" x1="738.073" x2="913.073" y1="73.0078" y2="73.0078"/><text fill="#000000" font-family="sans-serif" font-size="9.8" lengthAdjust="spacing" textLength="168" x="741.573" y="84.9044">@beecode/msh-util/lib/time-util.ts</text></g><g id="elem_filter_69308583"><rect fill="#F1F1F1" height="31.2156" style="stroke:#181818;stroke-width:0.3499999999999999;" width="88.9" x="953.323" y="58.8"/><text fill="#000000" font-family="sans-serif" font-size="9.8" lengthAdjust="spacing" textLength="23.1" x="986.223" y="69.2966">filter</text><line style="stroke:#181818;stroke-width:0.3499999999999999;" x1="954.023" x2="1041.523" y1="73.0078" y2="73.0078"/><text fill="#000000" font-family="sans-serif" font-size="9.8" lengthAdjust="spacing" textLength="80.5" x="957.523" y="84.9044">rxjs/operators.ts</text></g><g id="elem_subject_cfb30004"><rect fill="#F1F1F1" height="31.2156" style="stroke:#181818;stroke-width:0.3499999999999999;" width="119.7" x="1066.723" y="58.8"/><text fill="#000000" font-family="sans-serif" font-size="9.8" lengthAdjust="spacing" textLength="37.1" x="1108.023" y="69.2966">Subject</text><line style="stroke:#181818;stroke-width:0.3499999999999999;" x1="1067.423" x2="1185.723" y1="73.0078" y2="73.0078"/><text fill="#000000" font-family="sans-serif" font-size="9.8" lengthAdjust="spacing" textLength="111.3" x="1070.923" y="84.9044">rxjs/internal/Subject.ts</text></g><!--reverse link time_util_e2c2a0e8 to entity_cache_memory_6fc31f5--><g id="link_time_util_e2c2a0e8_entity_cache_memory_6fc31f5"><path codeLine="50" d="M793.548,92.05 C769.776,104.531 735.147,122.703 697.942,142.219 " fill="none" id="time_util_e2c2a0e8-backto-entity_cache_memory_6fc31f5" style="stroke:#181818;stroke-width:0.6999999999999998;"/><polygon fill="#181818" points="796.684,90.405,789.8047,90.8587,793.5861,92.0339,792.4109,95.8153,796.684,90.405" style="stroke:#181818;stroke-width:0.6999999999999998;"/></g><!--reverse link subject_cfb30004 to entity_cache_memory_6fc31f5--><g id="link_subject_cfb30004_entity_cache_memory_6fc31f5"><path codeLine="51" d="M1108.38,93.065 C1096.683,103.551 1080.653,116.228 1064.273,123.9 C949.123,177.842 809.536,208.32 698.005,225.337 " fill="none" id="subject_cfb30004-backto-entity_cache_memory_6fc31f5" style="stroke:#181818;stroke-width:0.6999999999999998;"/><polygon fill="#181818" points="1111.264,90.454,1104.7168,92.6137,1108.6719,92.8059,1108.4798,96.761,1111.264,90.454" style="stroke:#181818;stroke-width:0.6999999999999998;"/></g><!--reverse link filter_69308583 to entity_cache_memory_6fc31f5--><g id="link_filter_69308583_entity_cache_memory_6fc31f5"><path codeLine="52" d="M975.772,92.575 C961.856,102.851 943.124,115.479 924.973,123.9 C853.524,157.059 771.078,183.267 697.928,202.762 " fill="none" id="filter_69308583-backto-entity_cache_memory_6fc31f5" style="stroke:#181818;stroke-width:0.6999999999999998;"/><polygon fill="#181818" points="978.67,90.419,971.9439,91.9321,975.8616,92.5078,975.286,96.4255,978.67,90.419" style="stroke:#181818;stroke-width:0.6999999999999998;"/></g><!--reverse link entity_cache_6fc31f5 to entity_cache_memory_6fc31f5--><g id="link_entity_cache_6fc31f5_entity_cache_memory_6fc31f5"><path codeLine="53" d="M500.073,94.619 C500.073,104.818 500.073,118.237 500.073,132.881 " fill="none" id="entity_cache_6fc31f5-backto-entity_cache_memory_6fc31f5" style="stroke:#181818;stroke-width:0.6999999999999998;"/><polygon fill="#181818" points="500.073,91.014,497.273,97.314,500.073,94.514,502.873,97.314,500.073,91.014" style="stroke:#181818;stroke-width:0.6999999999999998;"/></g><!--reverse link entity_cache_subscription_6fc31f5 to entity_cache_memory_6fc31f5--><g id="link_entity_cache_subscription_6fc31f5_entity_cache_memory_6fc31f5"><path codeLine="54" d="M240.233,92.911 C257.852,103.292 281.799,117.404 308.056,132.881 " fill="none" id="entity_cache_subscription_6fc31f5-backto-entity_cache_memory_6fc31f5" style="stroke:#181818;stroke-width:0.6999999999999998;"/><polygon fill="#181818" points="237.02,91.014,241.0313,96.6211,240.037,92.7881,243.87,91.7938,237.02,91.014" style="stroke:#181818;stroke-width:0.6999999999999998;"/></g><!--reverse link entity_cache_call_back_6fc31f5 to entity_cache_promise_service_90748edb--><g id="link_entity_cache_call_back_6fc31f5_entity_cache_promise_service_90748edb"><path codeLine="55" d="M165.774,266.882 C171.745,297.381 183.533,357.623 192.304,402.465 " fill="none" id="entity_cache_call_back_6fc31f5-backto-entity_cache_promise_service_90748edb" style="stroke:#181818;stroke-width:0.6999999999999998;"/><polygon fill="#181818" points="165.074,263.312,163.5337,270.0319,165.745,266.7471,169.0298,268.9583,165.074,263.312" style="stroke:#181818;stroke-width:0.6999999999999998;"/></g><!--reverse link entity_cache_memory_6fc31f5 to entity_cache_promise_service_90748edb--><g id="link_entity_cache_memory_6fc31f5_entity_cache_promise_service_90748edb"><path codeLine="56" d="M338.156,362.586 C318.696,376.425 299.551,390.04 282.072,402.465 " fill="none" id="entity_cache_memory_6fc31f5-backto-entity_cache_promise_service_90748edb" style="stroke:#181818;stroke-width:0.6999999999999998;"/><polygon fill="#181818" points="341.026,360.542,334.2648,361.8895,338.1672,362.5612,337.4954,366.4636,341.026,360.542" style="stroke:#181818;stroke-width:0.6999999999999998;"/></g><!--reverse link entity_cache_subscription_6fc31f5 to entity_cache_promise_service_90748edb--><g id="link_entity_cache_subscription_6fc31f5_entity_cache_promise_service_90748edb"><path codeLine="57" d="M132.041,80.507 C96.019,87.311 56.364,101.976 33.873,133 C4.2,173.936 8.617,316.708 33.873,360.5 C43.295,376.838 56.595,390.691 71.645,402.381 " fill="none" id="entity_cache_subscription_6fc31f5-backto-entity_cache_promise_service_90748edb" style="stroke:#181818;stroke-width:0.6999999999999998;"/><polygon fill="#181818" points="135.52,79.87,128.8187,78.2507,132.0773,80.5005,129.8275,83.7591,135.52,79.87" style="stroke:#181818;stroke-width:0.6999999999999998;"/></g><!--SRC=[fLPjRzem4Fw-Ns6nBq5QHWhbBTtArgwJ-D2jMjc7gQqinxaKjo56jbCLiVxtEN5U8L2c8W7E-Uvv7jzTBa48eO27FWZKae9s859ChMnAw1nQY4YaZTWOSMh4TE0G2lqkMhz3wOSIuQEQoo2WlQEWZsuo3uGkqktpPBUmsRPThDU8-IwIIh3e_YG3Sz75ZzbqzWUzP6vtEmaf2KFi4Vgud_fSkvrfhqO95lMkY20BwLP3FXaDfstq-HGzSUQ_gaN6dgI2BHNZqNuvrnNF7Lc9empE0nTPXOZjb8H4IjIgW5_2WejLMiAQl4LgBuIj2xBtA4aZZKEYOCOMm6DbAVF_CmWag4ivSL4KBpmGxNo1_cg9FWGi0h-AP5XSjBwDKjFDOrxTkz9eT4toEfzaveoqGeTkevVaMsNGUNa0gggcBF3YUSa4-DOsZfRjSHu2ATDz3-fiDVMjiltQfS08m9_nxw3eV5A4dZIhh-dJsRAMkvlfG_saJUcjj9g6otjWGsgEaxH_qlswHJJh_lvjkw-qO7uAucaIGbMjgwu4Np09ro2U68NjxbgQVIoD0nuxm-CH-5wzptp2QofCh-PIAvxhNCGBoeRGLxcAQ9g2wJTzb4pFAw4RUSxJNF6cFDBUCLLSM5hTP8-yTX4MS47X5mG2vBoKr5ov6Sy0voIwB-iu_RPTmuQ1LN0VLZppcu_rBnu0vJvq5d9knug5dP1vQUco3QmtSBA1zGOUzxtWk1-KyvsdDnfg9KFXj_PAGvEKcXZeqYvnO5GfSIDZ9mb9hpugkKUkU7wGAKMom4Cw78-TOB2b9c2X0f4wcYKUZ7lEg3_gLOGa41s-145qOUKcRyd98WqG4NEq_09tFUZJeo5K07FsQpDzp1FIh34Dl9xZECSLzqn1ZjZ9maeXfPGo5Vl6jHqlxTE6v1yKjYdqeA2Dv1uKq_GoyF-1JG_IJPITywO1R-ibuIrWTVblGMewvZy0]--></g></svg>